<mxfile host="65bd71144e" pages="4">
    <diagram id="-i0a1G3uP3xIRk7ZEchg" name="Buổi 1">
        <mxGraphModel dx="513" dy="686" grid="1" gridSize="10" guides="1" tooltips="1" connect="1" arrows="1" fold="1" page="1" pageScale="1" pageWidth="850" pageHeight="1100" math="0" shadow="0">
            <root>
                <mxCell id="0"/>
                <mxCell id="1" parent="0"/>
                <mxCell id="2" value="" style="edgeStyle=entityRelationEdgeStyle;endArrow=ERzeroToMany;startArrow=ERone;endFill=1;startFill=0;" parent="1" source="15" target="26" edge="1">
                    <mxGeometry width="100" height="100" relative="1" as="geometry">
                        <mxPoint x="340" y="720" as="sourcePoint"/>
                        <mxPoint x="440" y="620" as="targetPoint"/>
                    </mxGeometry>
                </mxCell>
                <mxCell id="3" value="" style="edgeStyle=entityRelationEdgeStyle;endArrow=ERzeroToMany;startArrow=ERone;endFill=1;startFill=0;" parent="1" source="23" target="8" edge="1">
                    <mxGeometry width="100" height="100" relative="1" as="geometry">
                        <mxPoint x="400" y="180" as="sourcePoint"/>
                        <mxPoint x="460" y="205" as="targetPoint"/>
                    </mxGeometry>
                </mxCell>
                <mxCell id="4" value="Shipments" style="shape=table;startSize=30;container=1;collapsible=1;childLayout=tableLayout;fixedRows=1;rowLines=0;fontStyle=1;align=center;resizeLast=1;" parent="1" vertex="1">
                    <mxGeometry x="406" y="154" width="250" height="130" as="geometry"/>
                </mxCell>
                <mxCell id="5" value="" style="shape=partialRectangle;collapsible=0;dropTarget=0;pointerEvents=0;fillColor=none;points=[[0,0.5],[1,0.5]];portConstraint=eastwest;top=0;left=0;right=0;bottom=1;" parent="4" vertex="1">
                    <mxGeometry y="30" width="250" height="30" as="geometry"/>
                </mxCell>
                <mxCell id="6" value="PK" style="shape=partialRectangle;overflow=hidden;connectable=0;fillColor=none;top=0;left=0;bottom=0;right=0;fontStyle=1;" parent="5" vertex="1">
                    <mxGeometry width="30" height="30" as="geometry">
                        <mxRectangle width="30" height="30" as="alternateBounds"/>
                    </mxGeometry>
                </mxCell>
                <mxCell id="7" value="shipment_id int NOT NULL " style="shape=partialRectangle;overflow=hidden;connectable=0;fillColor=none;top=0;left=0;bottom=0;right=0;align=left;spacingLeft=6;fontStyle=5;" parent="5" vertex="1">
                    <mxGeometry x="30" width="220" height="30" as="geometry">
                        <mxRectangle width="220" height="30" as="alternateBounds"/>
                    </mxGeometry>
                </mxCell>
                <mxCell id="8" value="" style="shape=partialRectangle;collapsible=0;dropTarget=0;pointerEvents=0;fillColor=none;points=[[0,0.5],[1,0.5]];portConstraint=eastwest;top=0;left=0;right=0;bottom=0;" parent="4" vertex="1">
                    <mxGeometry y="60" width="250" height="30" as="geometry"/>
                </mxCell>
                <mxCell id="9" value="FK1" style="shape=partialRectangle;overflow=hidden;connectable=0;fillColor=none;top=0;left=0;bottom=0;right=0;" parent="8" vertex="1">
                    <mxGeometry width="30" height="30" as="geometry">
                        <mxRectangle width="30" height="30" as="alternateBounds"/>
                    </mxGeometry>
                </mxCell>
                <mxCell id="10" value="order_id int NOT NULL" style="shape=partialRectangle;overflow=hidden;connectable=0;fillColor=none;top=0;left=0;bottom=0;right=0;align=left;spacingLeft=6;" parent="8" vertex="1">
                    <mxGeometry x="30" width="220" height="30" as="geometry">
                        <mxRectangle width="220" height="30" as="alternateBounds"/>
                    </mxGeometry>
                </mxCell>
                <mxCell id="11" value="" style="shape=partialRectangle;collapsible=0;dropTarget=0;pointerEvents=0;fillColor=none;points=[[0,0.5],[1,0.5]];portConstraint=eastwest;top=0;left=0;right=0;bottom=0;" parent="4" vertex="1">
                    <mxGeometry y="90" width="250" height="30" as="geometry"/>
                </mxCell>
                <mxCell id="12" value="" style="shape=partialRectangle;overflow=hidden;connectable=0;fillColor=none;top=0;left=0;bottom=0;right=0;" parent="11" vertex="1">
                    <mxGeometry width="30" height="30" as="geometry">
                        <mxRectangle width="30" height="30" as="alternateBounds"/>
                    </mxGeometry>
                </mxCell>
                <mxCell id="13" value="shipment_date date NOT NULL" style="shape=partialRectangle;overflow=hidden;connectable=0;fillColor=none;top=0;left=0;bottom=0;right=0;align=left;spacingLeft=6;" parent="11" vertex="1">
                    <mxGeometry x="30" width="220" height="30" as="geometry">
                        <mxRectangle width="220" height="30" as="alternateBounds"/>
                    </mxGeometry>
                </mxCell>
                <mxCell id="14" value="Customers" style="shape=table;startSize=30;container=1;collapsible=1;childLayout=tableLayout;fixedRows=1;rowLines=0;fontStyle=1;align=center;resizeLast=1;" parent="1" vertex="1">
                    <mxGeometry x="98" width="250" height="100" as="geometry"/>
                </mxCell>
                <mxCell id="15" value="" style="shape=partialRectangle;collapsible=0;dropTarget=0;pointerEvents=0;fillColor=none;points=[[0,0.5],[1,0.5]];portConstraint=eastwest;top=0;left=0;right=0;bottom=1;" parent="14" vertex="1">
                    <mxGeometry y="30" width="250" height="30" as="geometry"/>
                </mxCell>
                <mxCell id="16" value="PK" style="shape=partialRectangle;overflow=hidden;connectable=0;fillColor=none;top=0;left=0;bottom=0;right=0;fontStyle=1;" parent="15" vertex="1">
                    <mxGeometry width="30" height="30" as="geometry">
                        <mxRectangle width="30" height="30" as="alternateBounds"/>
                    </mxGeometry>
                </mxCell>
                <mxCell id="17" value="customer_id int NOT NULL " style="shape=partialRectangle;overflow=hidden;connectable=0;fillColor=none;top=0;left=0;bottom=0;right=0;align=left;spacingLeft=6;fontStyle=5;" parent="15" vertex="1">
                    <mxGeometry x="30" width="220" height="30" as="geometry">
                        <mxRectangle width="220" height="30" as="alternateBounds"/>
                    </mxGeometry>
                </mxCell>
                <mxCell id="18" value="" style="shape=partialRectangle;collapsible=0;dropTarget=0;pointerEvents=0;fillColor=none;points=[[0,0.5],[1,0.5]];portConstraint=eastwest;top=0;left=0;right=0;bottom=0;" parent="14" vertex="1">
                    <mxGeometry y="60" width="250" height="30" as="geometry"/>
                </mxCell>
                <mxCell id="19" value="" style="shape=partialRectangle;overflow=hidden;connectable=0;fillColor=none;top=0;left=0;bottom=0;right=0;" parent="18" vertex="1">
                    <mxGeometry width="30" height="30" as="geometry">
                        <mxRectangle width="30" height="30" as="alternateBounds"/>
                    </mxGeometry>
                </mxCell>
                <mxCell id="20" value="customer_name char(50) NOT NULL" style="shape=partialRectangle;overflow=hidden;connectable=0;fillColor=none;top=0;left=0;bottom=0;right=0;align=left;spacingLeft=6;" parent="18" vertex="1">
                    <mxGeometry x="30" width="220" height="30" as="geometry">
                        <mxRectangle width="220" height="30" as="alternateBounds"/>
                    </mxGeometry>
                </mxCell>
                <mxCell id="21" value="&lt;font style=&quot;font-size: 36px;&quot;&gt;&lt;b&gt;Thực thể, các thuộc tính của thực thể&lt;/b&gt;&lt;/font&gt;" style="text;html=1;align=center;verticalAlign=middle;resizable=0;points=[];autosize=1;strokeColor=none;fillColor=none;" parent="1" vertex="1">
                    <mxGeometry x="35" y="392" width="672" height="56" as="geometry"/>
                </mxCell>
                <mxCell id="22" value="Orders" style="shape=table;startSize=0;container=1;collapsible=1;childLayout=tableLayout;fixedRows=1;rowLines=0;fontStyle=1;align=center;resizeLast=1;" parent="1" vertex="1">
                    <mxGeometry x="406" width="250" height="130" as="geometry"/>
                </mxCell>
                <mxCell id="23" value="" style="shape=partialRectangle;collapsible=0;dropTarget=0;pointerEvents=0;fillColor=none;points=[[0,0.5],[1,0.5]];portConstraint=eastwest;top=0;left=0;right=0;bottom=1;" parent="22" vertex="1">
                    <mxGeometry width="250" height="30" as="geometry"/>
                </mxCell>
                <mxCell id="24" value="PK" style="shape=partialRectangle;overflow=hidden;connectable=0;fillColor=none;top=0;left=0;bottom=0;right=0;fontStyle=1;" parent="23" vertex="1">
                    <mxGeometry width="30" height="30" as="geometry">
                        <mxRectangle width="30" height="30" as="alternateBounds"/>
                    </mxGeometry>
                </mxCell>
                <mxCell id="25" value="order_id int NOT NULL " style="shape=partialRectangle;overflow=hidden;connectable=0;fillColor=none;top=0;left=0;bottom=0;right=0;align=left;spacingLeft=6;fontStyle=5;" parent="23" vertex="1">
                    <mxGeometry x="30" width="220" height="30" as="geometry">
                        <mxRectangle width="220" height="30" as="alternateBounds"/>
                    </mxGeometry>
                </mxCell>
                <mxCell id="26" value="" style="shape=partialRectangle;collapsible=0;dropTarget=0;pointerEvents=0;fillColor=none;points=[[0,0.5],[1,0.5]];portConstraint=eastwest;top=0;left=0;right=0;bottom=0;" parent="22" vertex="1">
                    <mxGeometry y="30" width="250" height="30" as="geometry"/>
                </mxCell>
                <mxCell id="27" value="FK1" style="shape=partialRectangle;overflow=hidden;connectable=0;fillColor=none;top=0;left=0;bottom=0;right=0;" parent="26" vertex="1">
                    <mxGeometry width="30" height="30" as="geometry">
                        <mxRectangle width="30" height="30" as="alternateBounds"/>
                    </mxGeometry>
                </mxCell>
                <mxCell id="28" value="customer_id int NOT NULL" style="shape=partialRectangle;overflow=hidden;connectable=0;fillColor=none;top=0;left=0;bottom=0;right=0;align=left;spacingLeft=6;" parent="26" vertex="1">
                    <mxGeometry x="30" width="220" height="30" as="geometry">
                        <mxRectangle width="220" height="30" as="alternateBounds"/>
                    </mxGeometry>
                </mxCell>
                <mxCell id="29" value="" style="shape=partialRectangle;collapsible=0;dropTarget=0;pointerEvents=0;fillColor=none;points=[[0,0.5],[1,0.5]];portConstraint=eastwest;top=0;left=0;right=0;bottom=0;" parent="22" vertex="1">
                    <mxGeometry y="60" width="250" height="30" as="geometry"/>
                </mxCell>
                <mxCell id="30" value="" style="shape=partialRectangle;overflow=hidden;connectable=0;fillColor=none;top=0;left=0;bottom=0;right=0;" parent="29" vertex="1">
                    <mxGeometry width="30" height="30" as="geometry">
                        <mxRectangle width="30" height="30" as="alternateBounds"/>
                    </mxGeometry>
                </mxCell>
                <mxCell id="31" value="order_date date NOT NULL" style="shape=partialRectangle;overflow=hidden;connectable=0;fillColor=none;top=0;left=0;bottom=0;right=0;align=left;spacingLeft=6;" parent="29" vertex="1">
                    <mxGeometry x="30" width="220" height="30" as="geometry">
                        <mxRectangle width="220" height="30" as="alternateBounds"/>
                    </mxGeometry>
                </mxCell>
                <mxCell id="32" value="&lt;font style=&quot;font-size: 24px;&quot;&gt;Mô hình quan hệ - thực thể (Enlity-Relationship Model)&lt;/font&gt;" style="text;html=1;align=center;verticalAlign=middle;resizable=0;points=[];autosize=1;strokeColor=none;fillColor=none;" parent="1" vertex="1">
                    <mxGeometry x="56" y="490" width="616" height="42" as="geometry"/>
                </mxCell>
                <mxCell id="33" value="&lt;font style=&quot;font-size: 24px;&quot;&gt;1. E-R mô hình trung gian để chuyển những yêu cầu quản lý dữ &lt;br&gt;liệu &quot;trong thế giới thực&quot;thành mô hình CSDL quan hệ&lt;/font&gt;" style="text;html=1;align=center;verticalAlign=middle;resizable=0;points=[];autosize=1;strokeColor=none;fillColor=none;" parent="1" vertex="1">
                    <mxGeometry x="47" y="550" width="714" height="70" as="geometry"/>
                </mxCell>
                <mxCell id="34" value="&lt;span style=&quot;font-size: 24px;&quot;&gt;2. Các thành phần của mô hình E-R&lt;/span&gt;" style="text;html=1;align=center;verticalAlign=middle;resizable=0;points=[];autosize=1;strokeColor=none;fillColor=none;" parent="1" vertex="1">
                    <mxGeometry x="56" y="658" width="406" height="42" as="geometry"/>
                </mxCell>
                <mxCell id="35" value="&lt;font style=&quot;font-size: 20px;&quot;&gt;2.1&amp;nbsp; Thực thể và tập thực thể&lt;/font&gt;" style="text;html=1;align=center;verticalAlign=middle;resizable=0;points=[];autosize=1;strokeColor=none;fillColor=none;" parent="1" vertex="1">
                    <mxGeometry x="122" y="723" width="294" height="42" as="geometry"/>
                </mxCell>
                <mxCell id="36" value="&lt;font style=&quot;font-size: 18px;&quot;&gt;- Thực thể là 1 đối tượng trong thế giới thực&amp;nbsp;&amp;nbsp;&lt;/font&gt;" style="text;html=1;align=center;verticalAlign=middle;resizable=0;points=[];autosize=1;strokeColor=none;fillColor=none;" parent="1" vertex="1">
                    <mxGeometry x="154" y="777" width="392" height="42" as="geometry"/>
                </mxCell>
                <mxCell id="37" value="&lt;span style=&quot;font-size: 18px;&quot;&gt;- Một nhóm bao gồm các thực thể tương tự nhau cấu thành 1 tập thực thể&lt;/span&gt;" style="text;html=1;align=center;verticalAlign=middle;resizable=0;points=[];autosize=1;strokeColor=none;fillColor=none;" parent="1" vertex="1">
                    <mxGeometry x="157" y="886" width="616" height="42" as="geometry"/>
                </mxCell>
                <mxCell id="38" value="&lt;font style=&quot;font-size: 18px;&quot;&gt;Ví dụ: 1 sinh viên, 1 khách hàng, 1 dự án..&lt;/font&gt;" style="text;html=1;align=center;verticalAlign=middle;resizable=0;points=[];autosize=1;strokeColor=none;fillColor=none;" parent="1" vertex="1">
                    <mxGeometry x="193" y="831" width="364" height="42" as="geometry"/>
                </mxCell>
                <mxCell id="39" value="&lt;font style=&quot;font-size: 18px;&quot;&gt;Ví dụ: 1 lớp học, tập phòng ban, tập các dự án&lt;/font&gt;" style="text;html=1;align=center;verticalAlign=middle;resizable=0;points=[];autosize=1;strokeColor=none;fillColor=none;" parent="1" vertex="1">
                    <mxGeometry x="189" y="943" width="406" height="42" as="geometry"/>
                </mxCell>
                <mxCell id="40" value="&lt;font style=&quot;font-size: 20px;&quot;&gt;2.2 Thuộc tính&lt;/font&gt;" style="text;html=1;align=center;verticalAlign=middle;resizable=0;points=[];autosize=1;strokeColor=none;fillColor=none;" parent="1" vertex="1">
                    <mxGeometry x="126" y="998" width="154" height="42" as="geometry"/>
                </mxCell>
                <mxCell id="41" value="&lt;span style=&quot;font-family: Helvetica; font-size: 18px; font-style: normal; font-variant-ligatures: normal; font-variant-caps: normal; font-weight: 400; letter-spacing: normal; orphans: 2; text-align: center; text-indent: 0px; text-transform: none; widows: 2; word-spacing: 0px; -webkit-text-stroke-width: 0px; text-decoration-thickness: initial; text-decoration-style: initial; text-decoration-color: initial; float: none; display: inline !important; background-color: rgb(255, 255, 255);&quot;&gt;- Thuộc tính của thực thể là tập các tính chất đặc trưng của mỗi thực thể&lt;/span&gt;" style="text;whiteSpace=wrap;html=1;" parent="1" vertex="1">
                    <mxGeometry x="168" y="1058" width="602" height="42" as="geometry"/>
                </mxCell>
                <mxCell id="42" value="&lt;font style=&quot;font-size: 18px;&quot;&gt;Ví dụ 1: Phân tích các thuộc tính của sản phẩm và chi tiết sản phẩm&lt;/font&gt;" style="text;html=1;align=center;verticalAlign=middle;resizable=0;points=[];autosize=1;strokeColor=none;fillColor=none;" parent="1" vertex="1">
                    <mxGeometry x="191" y="1120" width="574" height="42" as="geometry"/>
                </mxCell>
                <mxCell id="43" value="&lt;div style=&quot;text-align: center;&quot;&gt;&lt;span style=&quot;background-color: initial; font-size: 18px;&quot;&gt;ChiTietSanPham&lt;/span&gt;&lt;/div&gt;" style="text;whiteSpace=wrap;html=1;" parent="1" vertex="1">
                    <mxGeometry x="227" y="1190" width="140" height="42" as="geometry"/>
                </mxCell>
                <mxCell id="44" value="&lt;div style=&quot;text-align: center;&quot;&gt;&lt;span style=&quot;background-color: initial; font-size: 18px;&quot;&gt;SanPham&lt;/span&gt;&lt;/div&gt;" style="text;whiteSpace=wrap;html=1;" parent="1" vertex="1">
                    <mxGeometry x="509" y="1190" width="140" height="42" as="geometry"/>
                </mxCell>
                <mxCell id="45" value="&lt;div style=&quot;&quot;&gt;&lt;span style=&quot;background-color: initial; font-size: 18px;&quot;&gt;gia_sp&lt;/span&gt;&lt;/div&gt;" style="text;whiteSpace=wrap;html=1;fontStyle=3;align=center;" parent="1" vertex="1">
                    <mxGeometry x="227" y="1260" width="140" height="42" as="geometry"/>
                </mxCell>
                <mxCell id="46" value="&lt;div style=&quot;text-align: center;&quot;&gt;&lt;span style=&quot;background-color: initial; font-size: 18px;&quot;&gt;ten_san_pham&lt;/span&gt;&lt;/div&gt;" style="text;whiteSpace=wrap;html=1;" parent="1" vertex="1">
                    <mxGeometry x="508" y="1260" width="140" height="42" as="geometry"/>
                </mxCell>
                <mxCell id="47" value="&lt;div style=&quot;&quot;&gt;&lt;span style=&quot;background-color: initial; font-size: 18px;&quot;&gt;kich_thuoc&lt;/span&gt;&lt;/div&gt;" style="text;whiteSpace=wrap;html=1;fontStyle=3;align=center;" parent="1" vertex="1">
                    <mxGeometry x="224" y="1316" width="140" height="42" as="geometry"/>
                </mxCell>
                <mxCell id="48" value="&lt;div style=&quot;text-align: center;&quot;&gt;&lt;span style=&quot;background-color: initial; font-size: 18px;&quot;&gt;mo_ta&lt;/span&gt;&lt;/div&gt;" style="text;whiteSpace=wrap;html=1;" parent="1" vertex="1">
                    <mxGeometry x="508" y="1316" width="140" height="42" as="geometry"/>
                </mxCell>
                <mxCell id="49" value="&lt;div style=&quot;&quot;&gt;&lt;span style=&quot;background-color: initial; font-size: 18px;&quot;&gt;so_luong&lt;/span&gt;&lt;/div&gt;" style="text;whiteSpace=wrap;html=1;align=center;" parent="1" vertex="1">
                    <mxGeometry x="227" y="1374" width="140" height="42" as="geometry"/>
                </mxCell>
                <mxCell id="50" value="&lt;div style=&quot;&quot;&gt;&lt;span style=&quot;background-color: initial; font-size: 18px;&quot;&gt;kieu_dang&lt;/span&gt;&lt;/div&gt;" style="text;whiteSpace=wrap;html=1;fontStyle=3;align=center;" parent="1" vertex="1">
                    <mxGeometry x="224" y="1428" width="140" height="42" as="geometry"/>
                </mxCell>
                <mxCell id="51" value="&lt;div style=&quot;&quot;&gt;&lt;span style=&quot;background-color: initial; font-size: 18px;&quot;&gt;can_nang&lt;/span&gt;&lt;/div&gt;" style="text;whiteSpace=wrap;html=1;fontStyle=3;align=center;" parent="1" vertex="1">
                    <mxGeometry x="224" y="1484" width="140" height="42" as="geometry"/>
                </mxCell>
                <mxCell id="52" value="&lt;div style=&quot;&quot;&gt;&lt;span style=&quot;background-color: initial; font-size: 18px;&quot;&gt;hang_san_xuat&lt;/span&gt;&lt;/div&gt;" style="text;whiteSpace=wrap;html=1;align=center;" parent="1" vertex="1">
                    <mxGeometry x="224" y="1540" width="140" height="42" as="geometry"/>
                </mxCell>
                <mxCell id="53" value="&lt;div style=&quot;&quot;&gt;&lt;span style=&quot;background-color: initial; font-size: 18px;&quot;&gt;xuat_xu&lt;/span&gt;&lt;/div&gt;" style="text;whiteSpace=wrap;html=1;align=center;" parent="1" vertex="1">
                    <mxGeometry x="224" y="1596" width="140" height="42" as="geometry"/>
                </mxCell>
                <mxCell id="54" value="&lt;span style=&quot;font-family: Helvetica; font-size: 18px; font-style: normal; font-variant-ligatures: normal; font-variant-caps: normal; font-weight: 400; letter-spacing: normal; orphans: 2; text-indent: 0px; text-transform: none; widows: 2; word-spacing: 0px; -webkit-text-stroke-width: 0px; text-decoration-thickness: initial; text-decoration-style: initial; text-decoration-color: initial; float: none; display: inline !important; background-color: rgb(255, 255, 255);&quot;&gt;Ví dụ 2: Phân tích các thuộc tính của sinh viên&lt;/span&gt;" style="text;whiteSpace=wrap;html=1;align=center;" parent="1" vertex="1">
                    <mxGeometry x="72" y="1650" width="636" height="30" as="geometry"/>
                </mxCell>
                <mxCell id="55" value="&lt;div style=&quot;&quot;&gt;&lt;span style=&quot;background-color: initial; font-size: 18px;&quot;&gt;SinhVien&lt;/span&gt;&lt;/div&gt;" style="text;whiteSpace=wrap;html=1;align=center;" parent="1" vertex="1">
                    <mxGeometry x="198" y="1708" width="84" height="28" as="geometry"/>
                </mxCell>
                <mxCell id="56" value="&lt;div style=&quot;font-size: 18px;&quot;&gt;ho_ten_sv (string[50])&lt;/div&gt;&lt;div style=&quot;font-size: 18px;&quot;&gt;&lt;br&gt;&lt;/div&gt;" style="text;whiteSpace=wrap;html=1;align=center;" parent="1" vertex="1">
                    <mxGeometry x="144.5" y="1764" width="197" height="28" as="geometry"/>
                </mxCell>
                <mxCell id="57" value="&lt;div style=&quot;font-size: 18px;&quot;&gt;ngay_sinh(date)&lt;/div&gt;" style="text;whiteSpace=wrap;html=1;align=center;" parent="1" vertex="1">
                    <mxGeometry x="195" y="1820" width="84" height="28" as="geometry"/>
                </mxCell>
                <mxCell id="58" value="&lt;div style=&quot;font-size: 18px;&quot;&gt;chuyen_nganh&lt;/div&gt;" style="text;whiteSpace=wrap;html=1;align=center;" parent="1" vertex="1">
                    <mxGeometry x="197" y="1876" width="82" height="28" as="geometry"/>
                </mxCell>
                <mxCell id="59" value="&lt;div style=&quot;font-size: 18px;&quot;&gt;ma_sinh_vien()&lt;/div&gt;" style="text;whiteSpace=wrap;html=1;align=center;" parent="1" vertex="1">
                    <mxGeometry x="197" y="1933" width="84" height="28" as="geometry"/>
                </mxCell>
                <mxCell id="60" value="&lt;div style=&quot;font-size: 18px;&quot;&gt;que_quan&lt;/div&gt;" style="text;whiteSpace=wrap;html=1;align=center;" parent="1" vertex="1">
                    <mxGeometry x="198" y="1989" width="84" height="28" as="geometry"/>
                </mxCell>
                <mxCell id="61" value="&lt;div style=&quot;font-size: 18px;&quot;&gt;dia_chi&lt;/div&gt;" style="text;whiteSpace=wrap;html=1;align=center;" parent="1" vertex="1">
                    <mxGeometry x="198" y="2044" width="84" height="28" as="geometry"/>
                </mxCell>
                <mxCell id="62" value="&lt;div style=&quot;font-size: 18px;&quot;&gt;gioi_tinh&lt;/div&gt;" style="text;whiteSpace=wrap;html=1;align=center;" parent="1" vertex="1">
                    <mxGeometry x="201" y="2100" width="84" height="28" as="geometry"/>
                </mxCell>
                <mxCell id="63" value="&lt;div style=&quot;&quot;&gt;&lt;span style=&quot;background-color: initial; font-size: 18px;&quot;&gt;Các loại giá trị của thuộc tính&lt;/span&gt;&lt;/div&gt;" style="text;whiteSpace=wrap;html=1;align=center;" parent="1" vertex="1">
                    <mxGeometry x="419" y="1708" width="238" height="28" as="geometry"/>
                </mxCell>
                <mxCell id="64" value="&lt;div style=&quot;&quot;&gt;&lt;span style=&quot;background-color: initial; font-size: 18px;&quot;&gt;- Đợn trị: các thuộc tính có giá trị duy nhất cho 1 thực tể (mã sinh viên,CCCD,...)&lt;/span&gt;&lt;/div&gt;" style="text;whiteSpace=wrap;html=1;align=center;" parent="1" vertex="1">
                    <mxGeometry x="368" y="1764" width="397" height="70" as="geometry"/>
                </mxCell>
                <mxCell id="65" value="&lt;div style=&quot;&quot;&gt;&lt;span style=&quot;background-color: initial; font-size: 18px;&quot;&gt;- Đa trị: các thuộc tính có 1 tập giá trị cho cùng 1 thực thể&lt;/span&gt;&lt;/div&gt;" style="text;whiteSpace=wrap;html=1;align=center;" parent="1" vertex="1">
                    <mxGeometry x="370" y="1855" width="397" height="49" as="geometry"/>
                </mxCell>
            </root>
        </mxGraphModel>
    </diagram>
    <diagram id="Q6Pnylw1a0goR6wDchS6" name="Buổi 2">
        <mxGraphModel dx="413" dy="466" grid="1" gridSize="10" guides="1" tooltips="1" connect="1" arrows="1" fold="1" page="1" pageScale="1" pageWidth="850" pageHeight="1100" math="0" shadow="0">
            <root>
                <mxCell id="0"/>
                <mxCell id="1" parent="0"/>
                <mxCell id="j0CbWDH6RCKpCwbWECS4-1" value="&lt;font style=&quot;font-size: 36px;&quot;&gt;&lt;span&gt;&lt;i&gt;Từ khóa&lt;/i&gt;&lt;/span&gt;&lt;/font&gt;" style="text;html=1;align=center;verticalAlign=middle;resizable=0;points=[];autosize=1;strokeColor=none;fillColor=none;fontStyle=1" parent="1" vertex="1">
                    <mxGeometry x="45" y="30" width="170" height="60" as="geometry"/>
                </mxCell>
                <mxCell id="j0CbWDH6RCKpCwbWECS4-2" value="&lt;font style=&quot;font-size: 30px;&quot;&gt;&lt;b&gt;&lt;u&gt;PK: Primary Key: khóa chính (duy nhất)&lt;/u&gt;&lt;/b&gt;&lt;/font&gt;" style="text;html=1;align=center;verticalAlign=middle;resizable=0;points=[];autosize=1;strokeColor=none;fillColor=none;" parent="1" vertex="1">
                    <mxGeometry x="28" y="110" width="590" height="50" as="geometry"/>
                </mxCell>
                <mxCell id="j0CbWDH6RCKpCwbWECS4-3" value="&lt;font style=&quot;font-size: 30px;&quot;&gt;&lt;u&gt;&lt;b&gt;FK&lt;/b&gt; &lt;/u&gt;(Foreign key): khóa ngoại&lt;/font&gt;" style="text;html=1;align=center;verticalAlign=middle;resizable=0;points=[];autosize=1;strokeColor=none;fillColor=none;" parent="1" vertex="1">
                    <mxGeometry x="28" y="270" width="410" height="50" as="geometry"/>
                </mxCell>
                <mxCell id="j0CbWDH6RCKpCwbWECS4-4" value="&lt;font style=&quot;font-size: 36px;&quot;&gt;&lt;b&gt;&lt;i&gt;Ký hiệu&lt;/i&gt;&lt;/b&gt;&lt;/font&gt;" style="text;html=1;align=center;verticalAlign=middle;resizable=0;points=[];autosize=1;strokeColor=none;fillColor=none;" parent="1" vertex="1">
                    <mxGeometry x="45" y="340" width="150" height="60" as="geometry"/>
                </mxCell>
                <mxCell id="j0CbWDH6RCKpCwbWECS4-5" value="&lt;font style=&quot;font-size: 24px;&quot;&gt;(Thuộc tính khóa): là 1 thuộc tính của thực thể hoặc tập thực thể mà giá trị &lt;br&gt;của nó cho phép phân biệt với các thực thể với nhau&lt;/font&gt;" style="text;html=1;align=center;verticalAlign=middle;resizable=0;points=[];autosize=1;strokeColor=none;fillColor=none;fontSize=30;" parent="1" vertex="1">
                    <mxGeometry x="25" y="170" width="810" height="90" as="geometry"/>
                </mxCell>
                <mxCell id="j0CbWDH6RCKpCwbWECS4-6" value="&lt;font style=&quot;font-size: 20px;&quot;&gt;Ví dụ 1: Xây dựng mối quan hệ giữa Nhân viên và Phòng Ban&lt;/font&gt;" style="text;html=1;align=center;verticalAlign=middle;resizable=0;points=[];autosize=1;strokeColor=none;fillColor=none;" parent="1" vertex="1">
                    <mxGeometry x="385" y="570" width="570" height="40" as="geometry"/>
                </mxCell>
                <mxCell id="j0CbWDH6RCKpCwbWECS4-7" value="Entity" style="whiteSpace=wrap;html=1;align=center;" parent="1" vertex="1">
                    <mxGeometry x="70" y="440" width="100" height="40" as="geometry"/>
                </mxCell>
                <mxCell id="j0CbWDH6RCKpCwbWECS4-8" value="Entity" style="shape=ext;margin=3;double=1;whiteSpace=wrap;html=1;align=center;" parent="1" vertex="1">
                    <mxGeometry x="70" y="520" width="100" height="40" as="geometry"/>
                </mxCell>
                <mxCell id="j0CbWDH6RCKpCwbWECS4-9" value="Attribute" style="ellipse;whiteSpace=wrap;html=1;align=center;" parent="1" vertex="1">
                    <mxGeometry x="72" y="600" width="100" height="40" as="geometry"/>
                </mxCell>
                <mxCell id="j0CbWDH6RCKpCwbWECS4-10" value="Attribute" style="ellipse;shape=doubleEllipse;margin=3;whiteSpace=wrap;html=1;align=center;" parent="1" vertex="1">
                    <mxGeometry x="72" y="679" width="100" height="40" as="geometry"/>
                </mxCell>
                <mxCell id="j0CbWDH6RCKpCwbWECS4-11" value="Attribute" style="ellipse;whiteSpace=wrap;html=1;align=center;dashed=1;" parent="1" vertex="1">
                    <mxGeometry x="70" y="760" width="100" height="40" as="geometry"/>
                </mxCell>
                <mxCell id="j0CbWDH6RCKpCwbWECS4-12" value="&lt;span style=&quot;border-bottom: 1px dotted&quot;&gt;Attribute&lt;/span&gt;" style="ellipse;whiteSpace=wrap;html=1;align=center;" parent="1" vertex="1">
                    <mxGeometry x="70" y="840" width="100" height="40" as="geometry"/>
                </mxCell>
                <mxCell id="j0CbWDH6RCKpCwbWECS4-13" value="Relationship" style="shape=rhombus;perimeter=rhombusPerimeter;whiteSpace=wrap;html=1;align=center;" parent="1" vertex="1">
                    <mxGeometry x="320" y="440" width="120" height="60" as="geometry"/>
                </mxCell>
                <mxCell id="j0CbWDH6RCKpCwbWECS4-14" value="Nhân Viên" style="whiteSpace=wrap;html=1;align=center;" parent="1" vertex="1">
                    <mxGeometry x="498" y="760" width="100" height="40" as="geometry"/>
                </mxCell>
                <mxCell id="j0CbWDH6RCKpCwbWECS4-15" value="&lt;u&gt;&lt;b&gt;MaNV&lt;/b&gt;&lt;/u&gt;" style="ellipse;whiteSpace=wrap;html=1;align=center;" parent="1" vertex="1">
                    <mxGeometry x="398" y="640" width="100" height="40" as="geometry"/>
                </mxCell>
                <mxCell id="j0CbWDH6RCKpCwbWECS4-16" value="Hoten" style="ellipse;whiteSpace=wrap;html=1;align=center;" parent="1" vertex="1">
                    <mxGeometry x="515" y="640" width="100" height="40" as="geometry"/>
                </mxCell>
                <mxCell id="j0CbWDH6RCKpCwbWECS4-17" value="NgaySinh" style="ellipse;whiteSpace=wrap;html=1;align=center;" parent="1" vertex="1">
                    <mxGeometry x="320" y="720" width="100" height="40" as="geometry"/>
                </mxCell>
                <mxCell id="j0CbWDH6RCKpCwbWECS4-18" value="Luong" style="ellipse;whiteSpace=wrap;html=1;align=center;" parent="1" vertex="1">
                    <mxGeometry x="320" y="800" width="100" height="40" as="geometry"/>
                </mxCell>
                <mxCell id="j0CbWDH6RCKpCwbWECS4-19" value="DiaChi" style="ellipse;whiteSpace=wrap;html=1;align=center;" parent="1" vertex="1">
                    <mxGeometry x="415" y="880" width="100" height="40" as="geometry"/>
                </mxCell>
                <mxCell id="j0CbWDH6RCKpCwbWECS4-20" value="ChucVu" style="ellipse;whiteSpace=wrap;html=1;align=center;" parent="1" vertex="1">
                    <mxGeometry x="575" y="880" width="100" height="40" as="geometry"/>
                </mxCell>
                <mxCell id="j0CbWDH6RCKpCwbWECS4-21" value="KingNghiem" style="ellipse;whiteSpace=wrap;html=1;align=center;" parent="1" vertex="1">
                    <mxGeometry x="643" y="680" width="100" height="40" as="geometry"/>
                </mxCell>
                <mxCell id="j0CbWDH6RCKpCwbWECS4-22" value="" style="endArrow=none;html=1;rounded=0;entryX=0;entryY=0.5;entryDx=0;entryDy=0;" parent="1" source="j0CbWDH6RCKpCwbWECS4-17" target="j0CbWDH6RCKpCwbWECS4-14" edge="1">
                    <mxGeometry width="50" height="50" relative="1" as="geometry">
                        <mxPoint x="455" y="790" as="sourcePoint"/>
                        <mxPoint x="525.7106781186548" y="740" as="targetPoint"/>
                    </mxGeometry>
                </mxCell>
                <mxCell id="j0CbWDH6RCKpCwbWECS4-23" value="" style="endArrow=none;html=1;rounded=0;exitX=0.5;exitY=0;exitDx=0;exitDy=0;" parent="1" source="j0CbWDH6RCKpCwbWECS4-18" edge="1">
                    <mxGeometry width="50" height="50" relative="1" as="geometry">
                        <mxPoint x="449" y="765" as="sourcePoint"/>
                        <mxPoint x="500" y="780" as="targetPoint"/>
                    </mxGeometry>
                </mxCell>
                <mxCell id="j0CbWDH6RCKpCwbWECS4-24" value="" style="endArrow=none;html=1;rounded=0;entryX=0.5;entryY=1;entryDx=0;entryDy=0;exitX=0.5;exitY=0;exitDx=0;exitDy=0;" parent="1" source="j0CbWDH6RCKpCwbWECS4-19" target="j0CbWDH6RCKpCwbWECS4-14" edge="1">
                    <mxGeometry width="50" height="50" relative="1" as="geometry">
                        <mxPoint x="480" y="839" as="sourcePoint"/>
                        <mxPoint x="538" y="838.75" as="targetPoint"/>
                    </mxGeometry>
                </mxCell>
                <mxCell id="j0CbWDH6RCKpCwbWECS4-25" value="" style="endArrow=none;html=1;rounded=0;exitX=0.5;exitY=1;exitDx=0;exitDy=0;entryX=0.5;entryY=0;entryDx=0;entryDy=0;" parent="1" source="j0CbWDH6RCKpCwbWECS4-14" target="j0CbWDH6RCKpCwbWECS4-20" edge="1">
                    <mxGeometry width="50" height="50" relative="1" as="geometry">
                        <mxPoint x="538" y="830" as="sourcePoint"/>
                        <mxPoint x="633" y="830" as="targetPoint"/>
                    </mxGeometry>
                </mxCell>
                <mxCell id="j0CbWDH6RCKpCwbWECS4-26" value="" style="endArrow=none;html=1;rounded=0;entryX=0;entryY=0.5;entryDx=0;entryDy=0;" parent="1" target="j0CbWDH6RCKpCwbWECS4-21" edge="1">
                    <mxGeometry width="50" height="50" relative="1" as="geometry">
                        <mxPoint x="545" y="760" as="sourcePoint"/>
                        <mxPoint x="640" y="758.75" as="targetPoint"/>
                    </mxGeometry>
                </mxCell>
                <mxCell id="j0CbWDH6RCKpCwbWECS4-27" value="" style="endArrow=none;html=1;rounded=0;entryX=0.5;entryY=1;entryDx=0;entryDy=0;" parent="1" target="j0CbWDH6RCKpCwbWECS4-16" edge="1">
                    <mxGeometry width="50" height="50" relative="1" as="geometry">
                        <mxPoint x="545" y="760" as="sourcePoint"/>
                        <mxPoint x="603" y="719.9999999999998" as="targetPoint"/>
                    </mxGeometry>
                </mxCell>
                <mxCell id="j0CbWDH6RCKpCwbWECS4-28" value="" style="endArrow=none;html=1;rounded=0;exitX=0.5;exitY=1;exitDx=0;exitDy=0;entryX=0.5;entryY=0;entryDx=0;entryDy=0;" parent="1" source="j0CbWDH6RCKpCwbWECS4-15" target="j0CbWDH6RCKpCwbWECS4-14" edge="1">
                    <mxGeometry width="50" height="50" relative="1" as="geometry">
                        <mxPoint x="470" y="739.3699999999999" as="sourcePoint"/>
                        <mxPoint x="565" y="739.3699999999999" as="targetPoint"/>
                    </mxGeometry>
                </mxCell>
                <mxCell id="j0CbWDH6RCKpCwbWECS4-29" value="Phòng Ban" style="whiteSpace=wrap;html=1;align=center;" parent="1" vertex="1">
                    <mxGeometry x="925" y="760" width="100" height="40" as="geometry"/>
                </mxCell>
                <mxCell id="j0CbWDH6RCKpCwbWECS4-30" value="&lt;u&gt;&lt;b&gt;MaPhong&lt;/b&gt;&lt;/u&gt;" style="ellipse;whiteSpace=wrap;html=1;align=center;" parent="1" vertex="1">
                    <mxGeometry x="825" y="640" width="100" height="40" as="geometry"/>
                </mxCell>
                <mxCell id="j0CbWDH6RCKpCwbWECS4-31" value="TenPhongBan" style="ellipse;whiteSpace=wrap;html=1;align=center;" parent="1" vertex="1">
                    <mxGeometry x="950" y="640" width="100" height="40" as="geometry"/>
                </mxCell>
                <mxCell id="j0CbWDH6RCKpCwbWECS4-32" value="" style="endArrow=none;html=1;rounded=0;entryX=0.5;entryY=1;entryDx=0;entryDy=0;exitX=0.5;exitY=0;exitDx=0;exitDy=0;" parent="1" source="j0CbWDH6RCKpCwbWECS4-29" target="j0CbWDH6RCKpCwbWECS4-31" edge="1">
                    <mxGeometry width="50" height="50" relative="1" as="geometry">
                        <mxPoint x="972" y="760" as="sourcePoint"/>
                        <mxPoint x="1030" y="719.9999999999998" as="targetPoint"/>
                    </mxGeometry>
                </mxCell>
                <mxCell id="j0CbWDH6RCKpCwbWECS4-33" value="" style="endArrow=none;html=1;rounded=0;exitX=0.5;exitY=1;exitDx=0;exitDy=0;entryX=0.5;entryY=0;entryDx=0;entryDy=0;" parent="1" source="j0CbWDH6RCKpCwbWECS4-30" target="j0CbWDH6RCKpCwbWECS4-29" edge="1">
                    <mxGeometry width="50" height="50" relative="1" as="geometry">
                        <mxPoint x="897" y="739.3699999999999" as="sourcePoint"/>
                        <mxPoint x="992" y="739.3699999999999" as="targetPoint"/>
                    </mxGeometry>
                </mxCell>
                <mxCell id="j0CbWDH6RCKpCwbWECS4-34" value="THUỘC VỀ" style="shape=rhombus;perimeter=rhombusPerimeter;whiteSpace=wrap;html=1;align=center;" parent="1" vertex="1">
                    <mxGeometry x="695" y="740" width="158" height="80" as="geometry"/>
                </mxCell>
                <mxCell id="j0CbWDH6RCKpCwbWECS4-35" value="" style="edgeStyle=entityRelationEdgeStyle;fontSize=12;html=1;endArrow=ERmandOne;rounded=0;entryX=0;entryY=0.5;entryDx=0;entryDy=0;exitX=1;exitY=0.5;exitDx=0;exitDy=0;" parent="1" source="j0CbWDH6RCKpCwbWECS4-34" target="j0CbWDH6RCKpCwbWECS4-29" edge="1">
                    <mxGeometry width="100" height="100" relative="1" as="geometry">
                        <mxPoint x="825" y="880" as="sourcePoint"/>
                        <mxPoint x="925" y="780" as="targetPoint"/>
                        <Array as="points">
                            <mxPoint x="885" y="780"/>
                            <mxPoint x="883" y="790"/>
                        </Array>
                    </mxGeometry>
                </mxCell>
                <mxCell id="j0CbWDH6RCKpCwbWECS4-36" value="" style="edgeStyle=entityRelationEdgeStyle;fontSize=12;html=1;endArrow=ERoneToMany;rounded=0;entryX=1;entryY=0.5;entryDx=0;entryDy=0;exitX=0;exitY=0.5;exitDx=0;exitDy=0;" parent="1" source="j0CbWDH6RCKpCwbWECS4-34" target="j0CbWDH6RCKpCwbWECS4-14" edge="1">
                    <mxGeometry width="100" height="100" relative="1" as="geometry">
                        <mxPoint x="655" y="930" as="sourcePoint"/>
                        <mxPoint x="755" y="830" as="targetPoint"/>
                    </mxGeometry>
                </mxCell>
                <mxCell id="j0CbWDH6RCKpCwbWECS4-37" value="&lt;font style=&quot;font-size: 20px;&quot;&gt;Ví dụ 2: Xây dựng mối quan hệ giữa bảng GiaoVien và SinhVien&lt;/font&gt;" style="text;html=1;align=center;verticalAlign=middle;resizable=0;points=[];autosize=1;strokeColor=none;fillColor=none;" parent="1" vertex="1">
                    <mxGeometry x="375" y="960" width="600" height="40" as="geometry"/>
                </mxCell>
                <mxCell id="j0CbWDH6RCKpCwbWECS4-38" value="GiaoVien" style="whiteSpace=wrap;html=1;align=center;" parent="1" vertex="1">
                    <mxGeometry x="505" y="1160" width="100" height="40" as="geometry"/>
                </mxCell>
                <mxCell id="j0CbWDH6RCKpCwbWECS4-39" value="&lt;u&gt;&lt;b&gt;MaNV&lt;/b&gt;&lt;/u&gt;" style="ellipse;whiteSpace=wrap;html=1;align=center;" parent="1" vertex="1">
                    <mxGeometry x="405" y="1040" width="100" height="40" as="geometry"/>
                </mxCell>
                <mxCell id="j0CbWDH6RCKpCwbWECS4-40" value="TenGV" style="ellipse;whiteSpace=wrap;html=1;align=center;" parent="1" vertex="1">
                    <mxGeometry x="550" y="1040" width="100" height="40" as="geometry"/>
                </mxCell>
                <mxCell id="j0CbWDH6RCKpCwbWECS4-41" value="" style="endArrow=none;html=1;rounded=0;entryX=0.5;entryY=1;entryDx=0;entryDy=0;exitX=0.5;exitY=0;exitDx=0;exitDy=0;" parent="1" source="j0CbWDH6RCKpCwbWECS4-38" target="j0CbWDH6RCKpCwbWECS4-40" edge="1">
                    <mxGeometry width="50" height="50" relative="1" as="geometry">
                        <mxPoint x="552" y="1150" as="sourcePoint"/>
                        <mxPoint x="610" y="1109.9999999999998" as="targetPoint"/>
                    </mxGeometry>
                </mxCell>
                <mxCell id="j0CbWDH6RCKpCwbWECS4-42" value="" style="endArrow=none;html=1;rounded=0;exitX=0.5;exitY=1;exitDx=0;exitDy=0;entryX=0.5;entryY=0;entryDx=0;entryDy=0;" parent="1" source="j0CbWDH6RCKpCwbWECS4-39" target="j0CbWDH6RCKpCwbWECS4-38" edge="1">
                    <mxGeometry width="50" height="50" relative="1" as="geometry">
                        <mxPoint x="477" y="1129.37" as="sourcePoint"/>
                        <mxPoint x="572" y="1129.37" as="targetPoint"/>
                    </mxGeometry>
                </mxCell>
                <mxCell id="j0CbWDH6RCKpCwbWECS4-43" value="SinhVien" style="whiteSpace=wrap;html=1;align=center;" parent="1" vertex="1">
                    <mxGeometry x="942" y="1160" width="100" height="40" as="geometry"/>
                </mxCell>
                <mxCell id="j0CbWDH6RCKpCwbWECS4-44" value="TenSV" style="ellipse;whiteSpace=wrap;html=1;align=center;" parent="1" vertex="1">
                    <mxGeometry x="832" y="1040" width="100" height="40" as="geometry"/>
                </mxCell>
                <mxCell id="j0CbWDH6RCKpCwbWECS4-45" value="&lt;b&gt;&lt;u&gt;MaSV&lt;/u&gt;&lt;/b&gt;" style="ellipse;whiteSpace=wrap;html=1;align=center;" parent="1" vertex="1">
                    <mxGeometry x="1002" y="1040" width="100" height="40" as="geometry"/>
                </mxCell>
                <mxCell id="j0CbWDH6RCKpCwbWECS4-46" value="" style="endArrow=none;html=1;rounded=0;entryX=0.5;entryY=1;entryDx=0;entryDy=0;exitX=0.5;exitY=0;exitDx=0;exitDy=0;" parent="1" source="j0CbWDH6RCKpCwbWECS4-43" target="j0CbWDH6RCKpCwbWECS4-45" edge="1">
                    <mxGeometry width="50" height="50" relative="1" as="geometry">
                        <mxPoint x="979" y="1150" as="sourcePoint"/>
                        <mxPoint x="1037" y="1109.9999999999998" as="targetPoint"/>
                    </mxGeometry>
                </mxCell>
                <mxCell id="j0CbWDH6RCKpCwbWECS4-47" value="" style="endArrow=none;html=1;rounded=0;exitX=0.5;exitY=1;exitDx=0;exitDy=0;entryX=0.25;entryY=0;entryDx=0;entryDy=0;" parent="1" source="j0CbWDH6RCKpCwbWECS4-44" target="j0CbWDH6RCKpCwbWECS4-43" edge="1">
                    <mxGeometry width="50" height="50" relative="1" as="geometry">
                        <mxPoint x="904" y="1129.37" as="sourcePoint"/>
                        <mxPoint x="999" y="1129.37" as="targetPoint"/>
                    </mxGeometry>
                </mxCell>
                <mxCell id="j0CbWDH6RCKpCwbWECS4-48" value="&lt;b&gt;&lt;font style=&quot;font-size: 20px;&quot;&gt;CÓ&lt;/font&gt;&lt;/b&gt;" style="shape=rhombus;perimeter=rhombusPerimeter;whiteSpace=wrap;html=1;align=center;" parent="1" vertex="1">
                    <mxGeometry x="702" y="1140" width="158" height="80" as="geometry"/>
                </mxCell>
                <mxCell id="j0CbWDH6RCKpCwbWECS4-49" value="" style="line;strokeWidth=1;rotatable=0;dashed=0;labelPosition=right;align=left;verticalAlign=middle;spacingTop=0;spacingLeft=6;points=[];portConstraint=eastwest;" parent="1" vertex="1">
                    <mxGeometry x="605" y="1175" width="100" height="10" as="geometry"/>
                </mxCell>
                <mxCell id="j0CbWDH6RCKpCwbWECS4-50" value="" style="line;strokeWidth=1;rotatable=0;dashed=0;labelPosition=right;align=left;verticalAlign=middle;spacingTop=0;spacingLeft=6;points=[];portConstraint=eastwest;" parent="1" vertex="1">
                    <mxGeometry x="860" y="1175" width="85" height="10" as="geometry"/>
                </mxCell>
                <mxCell id="jroYvUcZFBvN1Wk2XmTE-1" style="edgeStyle=orthogonalEdgeStyle;rounded=0;orthogonalLoop=1;jettySize=auto;html=1;exitX=0.5;exitY=1;exitDx=0;exitDy=0;" parent="1" source="j0CbWDH6RCKpCwbWECS4-10" target="j0CbWDH6RCKpCwbWECS4-10" edge="1">
                    <mxGeometry relative="1" as="geometry"/>
                </mxCell>
            </root>
        </mxGraphModel>
    </diagram>
    <diagram id="A86aAg6VTrJOMyCnB185" name="Buổi 3">
        <mxGraphModel dx="359" dy="480" grid="1" gridSize="10" guides="1" tooltips="1" connect="1" arrows="1" fold="1" page="1" pageScale="1" pageWidth="850" pageHeight="1100" math="0" shadow="0">
            <root>
                <mxCell id="0"/>
                <mxCell id="1" parent="0"/>
                <mxCell id="kyVWXVQCGpHKX-pNDfMW-1" value="&lt;font style=&quot;font-size: 36px;&quot;&gt;&lt;span&gt;&lt;i&gt;Từ khóa&lt;/i&gt;&lt;/span&gt;&lt;/font&gt;" style="text;html=1;align=center;verticalAlign=middle;resizable=0;points=[];autosize=1;strokeColor=none;fillColor=none;fontStyle=1" parent="1" vertex="1">
                    <mxGeometry x="45" y="30" width="170" height="60" as="geometry"/>
                </mxCell>
                <mxCell id="kyVWXVQCGpHKX-pNDfMW-2" value="&lt;font style=&quot;font-size: 30px;&quot;&gt;&lt;b&gt;&lt;u&gt;PK: Primary Key: khóa chính (duy nhất)&lt;/u&gt;&lt;/b&gt;&lt;/font&gt;" style="text;html=1;align=center;verticalAlign=middle;resizable=0;points=[];autosize=1;strokeColor=none;fillColor=none;" parent="1" vertex="1">
                    <mxGeometry x="28" y="110" width="590" height="50" as="geometry"/>
                </mxCell>
                <mxCell id="kyVWXVQCGpHKX-pNDfMW-3" value="&lt;font style=&quot;font-size: 30px;&quot;&gt;&lt;u&gt;&lt;b&gt;FK&lt;/b&gt; &lt;/u&gt;(Foreign key): khóa ngoại&lt;/font&gt;" style="text;html=1;align=center;verticalAlign=middle;resizable=0;points=[];autosize=1;strokeColor=none;fillColor=none;" parent="1" vertex="1">
                    <mxGeometry x="28" y="270" width="410" height="50" as="geometry"/>
                </mxCell>
                <mxCell id="kyVWXVQCGpHKX-pNDfMW-4" value="&lt;font style=&quot;font-size: 36px;&quot;&gt;&lt;b&gt;&lt;i&gt;Ký hiệu&lt;/i&gt;&lt;/b&gt;&lt;/font&gt;" style="text;html=1;align=center;verticalAlign=middle;resizable=0;points=[];autosize=1;strokeColor=none;fillColor=none;" parent="1" vertex="1">
                    <mxGeometry x="45" y="340" width="150" height="60" as="geometry"/>
                </mxCell>
                <mxCell id="kyVWXVQCGpHKX-pNDfMW-5" value="&lt;font style=&quot;font-size: 24px;&quot;&gt;(Thuộc tính khóa): là 1 thuộc tính của thực thể hoặc tập thực thể mà giá trị &lt;br&gt;của nó cho phép phân biệt với các thực thể với nhau&lt;/font&gt;" style="text;html=1;align=center;verticalAlign=middle;resizable=0;points=[];autosize=1;strokeColor=none;fillColor=none;fontSize=30;" parent="1" vertex="1">
                    <mxGeometry x="25" y="170" width="810" height="90" as="geometry"/>
                </mxCell>
                <mxCell id="kyVWXVQCGpHKX-pNDfMW-6" value="&lt;font style=&quot;font-size: 20px;&quot;&gt;Ví dụ 1: Xây dựng mối quan hệ giữa Nhân viên và Phòng Ban&lt;/font&gt;" style="text;html=1;align=center;verticalAlign=middle;resizable=0;points=[];autosize=1;strokeColor=none;fillColor=none;" parent="1" vertex="1">
                    <mxGeometry x="260" y="530" width="570" height="40" as="geometry"/>
                </mxCell>
                <mxCell id="kyVWXVQCGpHKX-pNDfMW-7" value="Entity" style="whiteSpace=wrap;html=1;align=center;" parent="1" vertex="1">
                    <mxGeometry x="70" y="440" width="100" height="40" as="geometry"/>
                </mxCell>
                <mxCell id="kyVWXVQCGpHKX-pNDfMW-8" value="Entity" style="shape=ext;margin=3;double=1;whiteSpace=wrap;html=1;align=center;" parent="1" vertex="1">
                    <mxGeometry x="70" y="520" width="100" height="40" as="geometry"/>
                </mxCell>
                <mxCell id="kyVWXVQCGpHKX-pNDfMW-9" value="Attribute" style="ellipse;whiteSpace=wrap;html=1;align=center;" parent="1" vertex="1">
                    <mxGeometry x="60" y="640" width="100" height="40" as="geometry"/>
                </mxCell>
                <mxCell id="kyVWXVQCGpHKX-pNDfMW-10" value="Attribute" style="ellipse;shape=doubleEllipse;margin=3;whiteSpace=wrap;html=1;align=center;" parent="1" vertex="1">
                    <mxGeometry x="60" y="720" width="100" height="40" as="geometry"/>
                </mxCell>
                <mxCell id="kyVWXVQCGpHKX-pNDfMW-11" value="Attribute" style="ellipse;whiteSpace=wrap;html=1;align=center;dashed=1;" parent="1" vertex="1">
                    <mxGeometry x="60" y="800" width="100" height="40" as="geometry"/>
                </mxCell>
                <mxCell id="kyVWXVQCGpHKX-pNDfMW-12" value="&lt;span style=&quot;border-bottom: 1px dotted&quot;&gt;Attribute&lt;/span&gt;" style="ellipse;whiteSpace=wrap;html=1;align=center;" parent="1" vertex="1">
                    <mxGeometry x="60" y="880" width="100" height="40" as="geometry"/>
                </mxCell>
                <mxCell id="kyVWXVQCGpHKX-pNDfMW-13" value="Relationship" style="shape=rhombus;perimeter=rhombusPerimeter;whiteSpace=wrap;html=1;align=center;" parent="1" vertex="1">
                    <mxGeometry x="263" y="430" width="120" height="60" as="geometry"/>
                </mxCell>
                <mxCell id="kyVWXVQCGpHKX-pNDfMW-14" value="Nhân Viên" style="whiteSpace=wrap;html=1;align=center;" parent="1" vertex="1">
                    <mxGeometry x="373" y="720" width="100" height="40" as="geometry"/>
                </mxCell>
                <mxCell id="kyVWXVQCGpHKX-pNDfMW-15" value="&lt;u&gt;&lt;b&gt;MaNV&lt;/b&gt;&lt;/u&gt;" style="ellipse;whiteSpace=wrap;html=1;align=center;" parent="1" vertex="1">
                    <mxGeometry x="273" y="600" width="100" height="40" as="geometry"/>
                </mxCell>
                <mxCell id="kyVWXVQCGpHKX-pNDfMW-16" value="Hoten" style="ellipse;whiteSpace=wrap;html=1;align=center;" parent="1" vertex="1">
                    <mxGeometry x="390" y="600" width="100" height="40" as="geometry"/>
                </mxCell>
                <mxCell id="kyVWXVQCGpHKX-pNDfMW-17" value="NgaySinh" style="ellipse;whiteSpace=wrap;html=1;align=center;" parent="1" vertex="1">
                    <mxGeometry x="195" y="680" width="100" height="40" as="geometry"/>
                </mxCell>
                <mxCell id="kyVWXVQCGpHKX-pNDfMW-18" value="Luong" style="ellipse;whiteSpace=wrap;html=1;align=center;" parent="1" vertex="1">
                    <mxGeometry x="195" y="760" width="100" height="40" as="geometry"/>
                </mxCell>
                <mxCell id="kyVWXVQCGpHKX-pNDfMW-19" value="DiaChi" style="ellipse;whiteSpace=wrap;html=1;align=center;" parent="1" vertex="1">
                    <mxGeometry x="290" y="840" width="100" height="40" as="geometry"/>
                </mxCell>
                <mxCell id="kyVWXVQCGpHKX-pNDfMW-20" value="ChucVu" style="ellipse;whiteSpace=wrap;html=1;align=center;" parent="1" vertex="1">
                    <mxGeometry x="450" y="840" width="100" height="40" as="geometry"/>
                </mxCell>
                <mxCell id="kyVWXVQCGpHKX-pNDfMW-21" value="KingNghiem" style="ellipse;whiteSpace=wrap;html=1;align=center;" parent="1" vertex="1">
                    <mxGeometry x="518" y="640" width="100" height="40" as="geometry"/>
                </mxCell>
                <mxCell id="kyVWXVQCGpHKX-pNDfMW-22" value="" style="endArrow=none;html=1;rounded=0;entryX=0;entryY=0.5;entryDx=0;entryDy=0;" parent="1" source="kyVWXVQCGpHKX-pNDfMW-17" target="kyVWXVQCGpHKX-pNDfMW-14" edge="1">
                    <mxGeometry width="50" height="50" relative="1" as="geometry">
                        <mxPoint x="330" y="750" as="sourcePoint"/>
                        <mxPoint x="400.71067811865476" y="700" as="targetPoint"/>
                    </mxGeometry>
                </mxCell>
                <mxCell id="kyVWXVQCGpHKX-pNDfMW-23" value="" style="endArrow=none;html=1;rounded=0;exitX=0.5;exitY=0;exitDx=0;exitDy=0;" parent="1" source="kyVWXVQCGpHKX-pNDfMW-18" edge="1">
                    <mxGeometry width="50" height="50" relative="1" as="geometry">
                        <mxPoint x="324" y="725" as="sourcePoint"/>
                        <mxPoint x="375" y="740" as="targetPoint"/>
                    </mxGeometry>
                </mxCell>
                <mxCell id="kyVWXVQCGpHKX-pNDfMW-24" value="" style="endArrow=none;html=1;rounded=0;entryX=0.5;entryY=1;entryDx=0;entryDy=0;exitX=0.5;exitY=0;exitDx=0;exitDy=0;" parent="1" source="kyVWXVQCGpHKX-pNDfMW-19" target="kyVWXVQCGpHKX-pNDfMW-14" edge="1">
                    <mxGeometry width="50" height="50" relative="1" as="geometry">
                        <mxPoint x="355" y="799" as="sourcePoint"/>
                        <mxPoint x="413" y="798.75" as="targetPoint"/>
                    </mxGeometry>
                </mxCell>
                <mxCell id="kyVWXVQCGpHKX-pNDfMW-25" value="" style="endArrow=none;html=1;rounded=0;exitX=0.5;exitY=1;exitDx=0;exitDy=0;entryX=0.5;entryY=0;entryDx=0;entryDy=0;" parent="1" source="kyVWXVQCGpHKX-pNDfMW-14" target="kyVWXVQCGpHKX-pNDfMW-20" edge="1">
                    <mxGeometry width="50" height="50" relative="1" as="geometry">
                        <mxPoint x="413" y="790" as="sourcePoint"/>
                        <mxPoint x="508" y="790" as="targetPoint"/>
                    </mxGeometry>
                </mxCell>
                <mxCell id="kyVWXVQCGpHKX-pNDfMW-26" value="" style="endArrow=none;html=1;rounded=0;entryX=0;entryY=0.5;entryDx=0;entryDy=0;" parent="1" target="kyVWXVQCGpHKX-pNDfMW-21" edge="1">
                    <mxGeometry width="50" height="50" relative="1" as="geometry">
                        <mxPoint x="420" y="720" as="sourcePoint"/>
                        <mxPoint x="515" y="718.75" as="targetPoint"/>
                    </mxGeometry>
                </mxCell>
                <mxCell id="kyVWXVQCGpHKX-pNDfMW-27" value="" style="endArrow=none;html=1;rounded=0;entryX=0.5;entryY=1;entryDx=0;entryDy=0;" parent="1" target="kyVWXVQCGpHKX-pNDfMW-16" edge="1">
                    <mxGeometry width="50" height="50" relative="1" as="geometry">
                        <mxPoint x="420" y="720" as="sourcePoint"/>
                        <mxPoint x="478" y="679.9999999999998" as="targetPoint"/>
                    </mxGeometry>
                </mxCell>
                <mxCell id="kyVWXVQCGpHKX-pNDfMW-28" value="" style="endArrow=none;html=1;rounded=0;exitX=0.5;exitY=1;exitDx=0;exitDy=0;entryX=0.5;entryY=0;entryDx=0;entryDy=0;" parent="1" source="kyVWXVQCGpHKX-pNDfMW-15" target="kyVWXVQCGpHKX-pNDfMW-14" edge="1">
                    <mxGeometry width="50" height="50" relative="1" as="geometry">
                        <mxPoint x="345" y="699.37" as="sourcePoint"/>
                        <mxPoint x="440" y="699.37" as="targetPoint"/>
                    </mxGeometry>
                </mxCell>
                <mxCell id="kyVWXVQCGpHKX-pNDfMW-29" value="Phòng Ban" style="whiteSpace=wrap;html=1;align=center;" parent="1" vertex="1">
                    <mxGeometry x="800" y="720" width="100" height="40" as="geometry"/>
                </mxCell>
                <mxCell id="kyVWXVQCGpHKX-pNDfMW-30" value="&lt;u&gt;&lt;b&gt;MaPhong&lt;/b&gt;&lt;/u&gt;" style="ellipse;whiteSpace=wrap;html=1;align=center;" parent="1" vertex="1">
                    <mxGeometry x="700" y="600" width="100" height="40" as="geometry"/>
                </mxCell>
                <mxCell id="kyVWXVQCGpHKX-pNDfMW-31" value="TenPhongBan" style="ellipse;whiteSpace=wrap;html=1;align=center;" parent="1" vertex="1">
                    <mxGeometry x="825" y="600" width="100" height="40" as="geometry"/>
                </mxCell>
                <mxCell id="kyVWXVQCGpHKX-pNDfMW-32" value="" style="endArrow=none;html=1;rounded=0;entryX=0.5;entryY=1;entryDx=0;entryDy=0;exitX=0.5;exitY=0;exitDx=0;exitDy=0;" parent="1" source="kyVWXVQCGpHKX-pNDfMW-29" target="kyVWXVQCGpHKX-pNDfMW-31" edge="1">
                    <mxGeometry width="50" height="50" relative="1" as="geometry">
                        <mxPoint x="847" y="720" as="sourcePoint"/>
                        <mxPoint x="905" y="679.9999999999998" as="targetPoint"/>
                    </mxGeometry>
                </mxCell>
                <mxCell id="kyVWXVQCGpHKX-pNDfMW-33" value="" style="endArrow=none;html=1;rounded=0;exitX=0.5;exitY=1;exitDx=0;exitDy=0;entryX=0.5;entryY=0;entryDx=0;entryDy=0;" parent="1" source="kyVWXVQCGpHKX-pNDfMW-30" target="kyVWXVQCGpHKX-pNDfMW-29" edge="1">
                    <mxGeometry width="50" height="50" relative="1" as="geometry">
                        <mxPoint x="772" y="699.37" as="sourcePoint"/>
                        <mxPoint x="867" y="699.37" as="targetPoint"/>
                    </mxGeometry>
                </mxCell>
                <mxCell id="kyVWXVQCGpHKX-pNDfMW-34" value="THUỘC VỀ" style="shape=rhombus;perimeter=rhombusPerimeter;whiteSpace=wrap;html=1;align=center;" parent="1" vertex="1">
                    <mxGeometry x="570" y="700" width="158" height="80" as="geometry"/>
                </mxCell>
                <mxCell id="kyVWXVQCGpHKX-pNDfMW-35" value="" style="edgeStyle=entityRelationEdgeStyle;fontSize=12;html=1;endArrow=ERmandOne;rounded=0;entryX=0;entryY=0.5;entryDx=0;entryDy=0;exitX=1;exitY=0.5;exitDx=0;exitDy=0;" parent="1" source="kyVWXVQCGpHKX-pNDfMW-34" target="kyVWXVQCGpHKX-pNDfMW-29" edge="1">
                    <mxGeometry width="100" height="100" relative="1" as="geometry">
                        <mxPoint x="700" y="840" as="sourcePoint"/>
                        <mxPoint x="800" y="740" as="targetPoint"/>
                        <Array as="points">
                            <mxPoint x="760" y="740"/>
                            <mxPoint x="758" y="750"/>
                        </Array>
                    </mxGeometry>
                </mxCell>
                <mxCell id="kyVWXVQCGpHKX-pNDfMW-36" value="" style="edgeStyle=entityRelationEdgeStyle;fontSize=12;html=1;endArrow=ERoneToMany;rounded=0;entryX=1;entryY=0.5;entryDx=0;entryDy=0;exitX=0;exitY=0.5;exitDx=0;exitDy=0;" parent="1" source="kyVWXVQCGpHKX-pNDfMW-34" target="kyVWXVQCGpHKX-pNDfMW-14" edge="1">
                    <mxGeometry width="100" height="100" relative="1" as="geometry">
                        <mxPoint x="530" y="890" as="sourcePoint"/>
                        <mxPoint x="630" y="790" as="targetPoint"/>
                    </mxGeometry>
                </mxCell>
                <mxCell id="kyVWXVQCGpHKX-pNDfMW-37" value="&lt;font style=&quot;font-size: 20px;&quot;&gt;Ví dụ 2: Xây dựng mối quan hệ giữa bảng GiaoVien và SinhVien&lt;/font&gt;" style="text;html=1;align=center;verticalAlign=middle;resizable=0;points=[];autosize=1;strokeColor=none;fillColor=none;" parent="1" vertex="1">
                    <mxGeometry x="250" y="920" width="600" height="40" as="geometry"/>
                </mxCell>
                <mxCell id="kyVWXVQCGpHKX-pNDfMW-38" value="GiaoVien" style="whiteSpace=wrap;html=1;align=center;" parent="1" vertex="1">
                    <mxGeometry x="380" y="1120" width="100" height="40" as="geometry"/>
                </mxCell>
                <mxCell id="kyVWXVQCGpHKX-pNDfMW-39" value="&lt;u&gt;&lt;b&gt;MaNV&lt;/b&gt;&lt;/u&gt;" style="ellipse;whiteSpace=wrap;html=1;align=center;" parent="1" vertex="1">
                    <mxGeometry x="280" y="1000" width="100" height="40" as="geometry"/>
                </mxCell>
                <mxCell id="kyVWXVQCGpHKX-pNDfMW-40" value="TenGV" style="ellipse;whiteSpace=wrap;html=1;align=center;" parent="1" vertex="1">
                    <mxGeometry x="425" y="1000" width="100" height="40" as="geometry"/>
                </mxCell>
                <mxCell id="kyVWXVQCGpHKX-pNDfMW-41" value="" style="endArrow=none;html=1;rounded=0;entryX=0.5;entryY=1;entryDx=0;entryDy=0;exitX=0.5;exitY=0;exitDx=0;exitDy=0;" parent="1" source="kyVWXVQCGpHKX-pNDfMW-38" target="kyVWXVQCGpHKX-pNDfMW-40" edge="1">
                    <mxGeometry width="50" height="50" relative="1" as="geometry">
                        <mxPoint x="427" y="1110" as="sourcePoint"/>
                        <mxPoint x="485" y="1069.9999999999998" as="targetPoint"/>
                    </mxGeometry>
                </mxCell>
                <mxCell id="kyVWXVQCGpHKX-pNDfMW-42" value="" style="endArrow=none;html=1;rounded=0;exitX=0.5;exitY=1;exitDx=0;exitDy=0;entryX=0.5;entryY=0;entryDx=0;entryDy=0;" parent="1" source="kyVWXVQCGpHKX-pNDfMW-39" target="kyVWXVQCGpHKX-pNDfMW-38" edge="1">
                    <mxGeometry width="50" height="50" relative="1" as="geometry">
                        <mxPoint x="352" y="1089.37" as="sourcePoint"/>
                        <mxPoint x="447" y="1089.37" as="targetPoint"/>
                    </mxGeometry>
                </mxCell>
                <mxCell id="kyVWXVQCGpHKX-pNDfMW-43" value="SinhVien" style="whiteSpace=wrap;html=1;align=center;" parent="1" vertex="1">
                    <mxGeometry x="817" y="1120" width="100" height="40" as="geometry"/>
                </mxCell>
                <mxCell id="kyVWXVQCGpHKX-pNDfMW-44" value="TenSV" style="ellipse;whiteSpace=wrap;html=1;align=center;" parent="1" vertex="1">
                    <mxGeometry x="707" y="1000" width="100" height="40" as="geometry"/>
                </mxCell>
                <mxCell id="kyVWXVQCGpHKX-pNDfMW-45" value="&lt;b&gt;&lt;u&gt;MaSV&lt;/u&gt;&lt;/b&gt;" style="ellipse;whiteSpace=wrap;html=1;align=center;" parent="1" vertex="1">
                    <mxGeometry x="877" y="1000" width="100" height="40" as="geometry"/>
                </mxCell>
                <mxCell id="kyVWXVQCGpHKX-pNDfMW-46" value="" style="endArrow=none;html=1;rounded=0;entryX=0.5;entryY=1;entryDx=0;entryDy=0;exitX=0.5;exitY=0;exitDx=0;exitDy=0;" parent="1" source="kyVWXVQCGpHKX-pNDfMW-43" target="kyVWXVQCGpHKX-pNDfMW-45" edge="1">
                    <mxGeometry width="50" height="50" relative="1" as="geometry">
                        <mxPoint x="854" y="1110" as="sourcePoint"/>
                        <mxPoint x="912" y="1069.9999999999998" as="targetPoint"/>
                    </mxGeometry>
                </mxCell>
                <mxCell id="kyVWXVQCGpHKX-pNDfMW-47" value="" style="endArrow=none;html=1;rounded=0;exitX=0.5;exitY=1;exitDx=0;exitDy=0;entryX=0.25;entryY=0;entryDx=0;entryDy=0;" parent="1" source="kyVWXVQCGpHKX-pNDfMW-44" target="kyVWXVQCGpHKX-pNDfMW-43" edge="1">
                    <mxGeometry width="50" height="50" relative="1" as="geometry">
                        <mxPoint x="779" y="1089.37" as="sourcePoint"/>
                        <mxPoint x="874" y="1089.37" as="targetPoint"/>
                    </mxGeometry>
                </mxCell>
                <mxCell id="kyVWXVQCGpHKX-pNDfMW-48" value="&lt;b&gt;&lt;font style=&quot;font-size: 20px;&quot;&gt;CÓ&lt;/font&gt;&lt;/b&gt;" style="shape=rhombus;perimeter=rhombusPerimeter;whiteSpace=wrap;html=1;align=center;" parent="1" vertex="1">
                    <mxGeometry x="577" y="1100" width="158" height="80" as="geometry"/>
                </mxCell>
                <mxCell id="kyVWXVQCGpHKX-pNDfMW-49" value="" style="line;strokeWidth=1;rotatable=0;dashed=0;labelPosition=right;align=left;verticalAlign=middle;spacingTop=0;spacingLeft=6;points=[];portConstraint=eastwest;" parent="1" vertex="1">
                    <mxGeometry x="480" y="1135" width="100" height="10" as="geometry"/>
                </mxCell>
                <mxCell id="kyVWXVQCGpHKX-pNDfMW-50" value="" style="line;strokeWidth=1;rotatable=0;dashed=0;labelPosition=right;align=left;verticalAlign=middle;spacingTop=0;spacingLeft=6;points=[];portConstraint=eastwest;" parent="1" vertex="1">
                    <mxGeometry x="735" y="1135" width="85" height="10" as="geometry"/>
                </mxCell>
            </root>
        </mxGraphModel>
    </diagram>
    <diagram id="EqGE-jjVE3QDdOK7ZI7x" name="Trang-4">
        <mxGraphModel dx="413" dy="466" grid="1" gridSize="10" guides="1" tooltips="1" connect="1" arrows="1" fold="1" page="1" pageScale="1" pageWidth="850" pageHeight="1100" math="0" shadow="0">
            <root>
                <mxCell id="0"/>
                <mxCell id="1" parent="0"/>
            </root>
        </mxGraphModel>
    </diagram>
</mxfile>